# xmcd
#
# Track frame offsets:
#	150
#	16718
#	33742
#	50562
#	67770
#	85815
#	103020
#	120775
#	139506
#	155609
#	175261
#	196961
#	214098
#	234812
#	250595
#	268592
#
# Disc length: 3846 seconds
#
# Revision: 3
# Processed by: cddbd v1.5.2PL0 Copyright (c) Steve Scherf et al.
# Submitted via: audiograbber 1.83.01
#
DISCID=c60f0410
DTITLE=Young Jeezy - The Inspiration
DYEAR=2006
DGENRE=Rap
TTITLE0=Young Jeezy - Hypnotize (intro)
TTITLE1=Young Jeezy - Still On It
TTITLE2=Young Jeezy - U Know What It Is
TTITLE3=Young Jeezy - J.E.E.Z.Y.
TTITLE4=Young Jeezy - I Luv It
TTITLE5=Young Jeezy, R. Kelly - Go Getta
TTITLE6=Young Jeezy, Timbaland - 3 A.M.
TTITLE7=Young Jeezy - The Realest
TTITLE8=Young Jeezy - Streets On Lock
TTITLE9=Young Jeezy - Bury Me a G
TTITLE10=Young Jeezy, Keyshia Cole - Dreamin'
TTITLE11=Young Jeezy - What You Talkin' Bout
TTITLE12=Young Jeezy, Blood Raw, Slick Pulla - Keep It Gangsta
TTITLE13=Young Jeezy - Mr. 17.5
TTITLE14=Young Jeezy, T.I. - I Got Money
TTITLE15=Young Jeezy - The Inspiration (Follow Me)
EXTD=www.RapMusicGuide.com
EXTT0=
EXTT1=
EXTT2=
EXTT3=
EXTT4=
EXTT5=
EXTT6=
EXTT7=
EXTT8=
EXTT9=
EXTT10=
EXTT11=
EXTT12=
EXTT13=
EXTT14=
EXTT15=
PLAYORDER=
